<?xml version="1.0" encoding="iso-8859-1"?>
<!-- Generator: Adobe Illustrator 19.0.0, SVG Export Plug-In . SVG Version: 6.00 Build 0)  -->
<svg version="1.1" id="Capa_1" xmlns="http://www.w3.org/2000/svg" xmlns:xlink="http://www.w3.org/1999/xlink" x="0px" y="0px"
	 viewBox="0 0 512 512" style="enable-background:new 0 0 512 512;" xml:space="preserve">
<path style="fill:#FD3018;" d="M462.8,104.399c-0.599-0.899-1.5-1.8-2.399-2.699c-1.201-1.5-2.1-3.001-3.301-4.2
	C409.401,36,333.3,0,255,0C179.399,0,107.999,33.6,60,90.901C54.6,97.2,49.501,104.099,44.7,111c-2.999,4.2-3.6,9.901-1.199,15
	c0,0.3,90.3,188.099,90.3,188.399c9.6,15.601,33.9,3.9,26.699-13.799c0-0.3-0.298-0.601-0.298-0.601
	c-6-12.001-10.201-28.2-10.201-45c0-49.501,35.099-96.301,93.3-104.399c0.3,0,0.3,0,0.601,0c3.9-0.3,7.8-0.901,11.1-1.201
	c90.601-9.899,54.2-5.4,221.6-23.699C472.7,118.801,466.399,108.9,462.8,104.399z"/>
<path style="fill:#FED42D;" d="M476.6,125.7c-3.9-6.899-10.201-16.8-13.801-21.301c-0.599-0.899-1.5-1.8-2.399-2.699
	c-3.001-2.401-7.202-3.9-11.102-3.3L255,119.099l-14.099,1.501c-0.3,0-0.3,0-0.601,0c-20.4,2.999-15.3,32.1,2.999,30
	c0.3,0,0.3,0,0.601,0c3.3-0.3,7.5-0.601,11.1-0.601c57.9,0,105,47.1,105,105c0,27.001-6.899,43.5-24.3,66.899
	c-12.001,16.501-29.7,38.301-53.699,67.4C272.1,401.6,263.101,412.4,255,422c-53.401,64.799-65.099,79.2-66.599,81
	c8.099,2.401,16.199,3.9,24.598,5.4c0.901,0.3,1.501,0.3,2.401,0.3c2.1,0.3,3.9,0.599,6,0.599c11.4,1.8,22.5,2.701,33.6,2.701
	c140.7,0,257-116.3,257-257C512,209.099,499.999,164.7,476.6,125.7z"/>
<path style="fill:#61DE56;" d="M335.7,321.899C315.901,345.601,285.901,362,255,362c-39.3,0-75-23.899-93.3-59.001
	c0-0.599-0.601-1.8-1.201-2.399c0-0.3-0.298-0.601-0.298-0.601S127.8,232.2,123.9,223.801L60,90.901
	C54.6,97.2,49.501,104.099,44.7,111C15.3,153.3,0,203.101,0,255c0,116.7,77.999,218.599,188.401,248
	c8.099,2.401,16.199,3.9,24.598,5.4c0.901,0.3,1.501,0.3,2.401,0.3c2.1,0.3,3.9,0.599,6,0.599l5.7-5.999
	c0.3-0.3,11.7-14.101,27.9-33.6c39-47.401,105-127.8,105-128.101C370.201,327.499,351,306.599,335.7,321.899z"/>
<path style="fill:#E61E14;" d="M457.099,97.5C409.401,36,333.3,0,255,0v149.399c86.801-9.483,57.699-5.806,202.099-21.57V97.5z"/>
<path style="fill:#FCBF29;" d="M512,255c0,140.7-116.3,257-257,257v-90c8.101-9.6,17.1-20.4,27.001-32.701
	C339.901,318.8,360,300.901,360,255c0-57.9-47.1-105-105-105v-30.901l194.299-20.698l7.8-0.901c1.201,1.199,2.1,2.701,3.301,4.2
	c0.899,0.899,1.8,1.8,2.399,2.699c3.6,4.501,9.901,14.401,13.801,21.301C499.999,164.7,512,209.099,512,255z"/>
<path style="fill:#13C37B;" d="M360,341.6c0,0.298-66,80.7-105,128.099V362c30.901,0,60.901-16.401,80.7-40.101
	C351,306.599,370.201,327.499,360,341.6z"/>
<path style="fill:#E5E5E5;" d="M390,255c0,74.399-60.601,137-135,137s-135-62.601-135-137c0-74.401,60.601-135,135-135
	S390,180.599,390,255z"/>
<path style="fill:#D9D9D9;" d="M390,255c0,74.399-60.601,137-135,137V120C329.399,120,390,180.599,390,255z"/>
<path style="fill:#159CE4;" d="M255,180c-42.299,0-75,34.2-75,75c0,39.6,32.1,77,75,77c40.201,0,75-34.401,75-77
	C330,213.6,296.4,180,255,180z"/>
<path style="fill:#1183D0;" d="M330,255c0,42.599-34.799,77-75,77V180C296.4,180,330,213.6,330,255z"/>
<g>
</g>
<g>
</g>
<g>
</g>
<g>
</g>
<g>
</g>
<g>
</g>
<g>
</g>
<g>
</g>
<g>
</g>
<g>
</g>
<g>
</g>
<g>
</g>
<g>
</g>
<g>
</g>
<g>
</g>
</svg>
