<?xml version="1.0" encoding="UTF-8" standalone="no"?>
<!DOCTYPE svg PUBLIC "-//W3C//DTD SVG 1.1//EN" "http://www.w3.org/Graphics/SVG/1.1/DTD/svg11.dtd">
<svg version="1.1" xmlns="http://www.w3.org/2000/svg" xmlns:xlink="http://www.w3.org/1999/xlink" preserveAspectRatio="xMidYMid meet" viewBox="0 0 640 640" width="640" height="640"><defs><path d="M632.11 390.92C624.09 426.36 610.2 459.56 591.49 489.44C590.7 490.72 589.89 492 589.06 493.28C532.1 581.56 432.88 640 320 640C207.13 640 107.9 581.56 50.94 493.28C26.16 454.91 9.38 410.89 2.94 363.57C1.45 352.65 0.52 341.55 0.17 330.29C0.05 326.87 0 323.45 0 320C0 288.88 4.44 258.8 12.72 230.35C16.04 218.97 19.97 207.86 24.49 197.04C31.82 179.41 40.7 162.59 50.94 146.72C107.9 58.44 207.13 0 320 0C432.88 0 532.1 58.44 589.06 146.72C602.02 166.79 612.79 188.41 621.05 211.24C624.95 222.08 628.31 233.2 631.05 244.55C633.69 255.44 635.77 266.55 637.25 277.85C638.7 288.78 639.57 299.9 639.88 311.16C639.96 314.1 640 317.03 640 320C640 344.39 637.27 368.12 632.11 390.92Z" id="e1eQGZECoo"></path><path d="M589.06 493.28C532.1 581.56 432.88 640 320 640C207.13 640 107.9 581.56 50.94 493.28C50.94 446.81 50.94 74.98 50.94 28.5C50.94 12.76 63.7 0 79.44 0C102.77 0 219.41 0 429.36 0L589.06 159.7C589.06 359.85 589.06 471.04 589.06 493.28Z" id="aIeJUlsfQ"></path><path d="M429.36 0L589.06 159.7C510.34 159.7 466.61 159.7 457.86 159.7C442.12 159.7 429.36 146.94 429.36 131.2C429.36 113.7 429.36 69.97 429.36 0Z" id="akcvsbbC5"></path><path d="M589.06 493.28C532.1 581.56 432.88 640 320 640C207.13 640 107.9 581.56 50.94 493.28C50.94 487.98 50.94 461.45 50.94 413.7L589.06 413.7L589.06 413.7C589.06 461.45 589.06 487.98 589.06 493.28Z" id="b3OrAS8c7b"></path><path d="M332.88 481.58C332.88 456.79 354.53 447.37 375.19 447.37C383.95 447.37 408.08 449.02 408.08 461.91C408.08 466.37 405.1 475.46 397.83 475.46C391.88 475.46 388.74 469.18 375.19 469.18C363.46 469.18 358.66 473.98 358.66 479.1C358.66 495.63 411.05 492.49 411.05 534.13C411.05 557.93 393.7 570.82 369.74 570.82C348.09 570.82 329.91 560.24 329.91 549.34C329.91 543.72 334.87 535.45 341.15 535.45C348.91 535.45 353.87 547.68 369.24 547.68C376.84 547.68 385.27 544.71 385.27 536.78C385.27 516.78 332.88 520.25 332.88 481.58Z" id="c2ssctW2qf"></path><path d="M191.6 191.03C191.6 170.97 216.51 152.45 239.88 152.45C255.09 152.45 259.06 160.39 259.06 167.44C259.06 173.84 255.76 181.33 248.7 181.33C242.09 181.33 225.99 183.76 225.99 195.66C225.99 200.95 229.3 217.49 229.3 222.78C229.3 229.39 224.01 236.23 221.36 237.11C224.45 237.99 229.3 244.38 229.3 251.22C229.3 256.73 225.99 281.2 225.99 285.61C225.99 295.09 240.98 297.3 248.7 297.3C256.86 297.3 259.06 306.12 259.06 311.63C259.06 321.55 252.23 326.18 239.44 326.18C216.29 326.18 191.6 311.19 191.6 290.02C191.6 282.31 194.91 260.26 194.91 255.41C194.91 245.93 181.68 252.1 181.68 236.45C181.68 221.02 194.91 227.41 194.91 218.37C194.91 213.74 191.6 198.31 191.6 191.03Z" id="a42uvOOU7"></path><path d="M448.25 290.02C448.25 311.19 423.56 326.18 400.41 326.18C387.63 326.18 380.79 321.55 380.79 311.63C380.79 306.12 383 297.3 391.16 297.3C398.87 297.3 413.87 295.09 413.87 285.61C413.87 281.2 410.56 256.73 410.56 251.22C410.56 244.39 415.41 237.99 418.49 237.11C415.85 236.23 410.56 229.39 410.56 222.78C410.56 217.49 413.87 200.95 413.87 195.66C413.87 183.76 397.77 181.33 391.16 181.33C384.1 181.33 380.79 173.83 380.79 167.44C380.79 160.39 384.76 152.45 399.98 152.45C423.34 152.45 448.26 170.97 448.26 191.03C448.26 198.31 444.95 213.74 444.95 218.37C444.95 227.41 458.18 221.02 458.18 236.45C458.18 252.1 444.95 245.93 444.95 255.41C444.95 260.26 448.25 282.31 448.25 290.02Z" id="f4wQxwhn3"></path><path d="M312.49 326.18L317.3 305.56L310.09 305.56L310.09 281.13L329.91 281.13L329.91 305.56L322.91 326.18L312.49 326.18ZM310.29 228.47L310.29 203.04L328.31 203.04L328.31 228.47L310.29 228.47Z" id="b1IcOxM8tv"></path><path d="M242.69 544.11C244.31 545.25 247.04 546.5 250.87 547.88C254.7 549.24 259.12 549.93 264.11 549.93C268.98 549.93 272.87 549.1 275.78 547.44C278.68 545.79 280.89 543.25 282.39 539.83C283.9 536.41 284.89 532.15 285.36 527.07C285.82 522 286.06 516.03 286.06 509.18C286.06 505.06 286.06 484.45 286.06 447.37L310.09 447.37C310.09 484.45 310.09 505.06 310.09 509.18C310.09 518.43 309.59 526.84 308.6 534.43C307.62 542.03 305.53 548.5 302.34 553.86C299.14 559.23 294.53 563.4 288.49 566.36C282.45 569.33 274.33 570.82 264.11 570.82C253.66 570.82 244.72 568.31 237.29 563.28C238.37 559.45 241.61 547.94 242.69 544.11Z" id="d1Lew4cmmH"></path></defs><g><g><g><use xlink:href="#e1eQGZECoo" opacity="1" fill="#5c5e70" fill-opacity="1"></use><g><use xlink:href="#e1eQGZECoo" opacity="1" fill-opacity="0" stroke="#000000" stroke-width="1" stroke-opacity="0"></use></g></g><g><use xlink:href="#aIeJUlsfQ" opacity="1" fill="#f9eed7" fill-opacity="1"></use><g><use xlink:href="#aIeJUlsfQ" opacity="1" fill-opacity="0" stroke="#000000" stroke-width="1" stroke-opacity="0"></use></g></g><g><use xlink:href="#akcvsbbC5" opacity="1" fill="#e8dbc4" fill-opacity="1"></use><g><use xlink:href="#akcvsbbC5" opacity="1" fill-opacity="0" stroke="#000000" stroke-width="1" stroke-opacity="0"></use></g></g><g><use xlink:href="#b3OrAS8c7b" opacity="1" fill="#cccc00" fill-opacity="1"></use><g><use xlink:href="#b3OrAS8c7b" opacity="1" fill-opacity="0" stroke="#000000" stroke-width="1" stroke-opacity="0"></use></g></g><g><use xlink:href="#c2ssctW2qf" opacity="1" fill="#f9eed7" fill-opacity="1"></use><g><use xlink:href="#c2ssctW2qf" opacity="1" fill-opacity="0" stroke="#000000" stroke-width="1" stroke-opacity="0"></use></g></g><g><use xlink:href="#a42uvOOU7" opacity="1" fill="#cccc00" fill-opacity="1"></use><g><use xlink:href="#a42uvOOU7" opacity="1" fill-opacity="0" stroke="#000000" stroke-width="1" stroke-opacity="0"></use></g></g><g><use xlink:href="#f4wQxwhn3" opacity="1" fill="#cccc00" fill-opacity="1"></use><g><use xlink:href="#f4wQxwhn3" opacity="1" fill-opacity="0" stroke="#000000" stroke-width="1" stroke-opacity="0"></use></g></g><g><use xlink:href="#b1IcOxM8tv" opacity="1" fill="#cccc00" fill-opacity="1"></use><g><use xlink:href="#b1IcOxM8tv" opacity="1" fill-opacity="0" stroke="#000000" stroke-width="1" stroke-opacity="0"></use></g></g><g><use xlink:href="#d1Lew4cmmH" opacity="1" fill="#f9eed7" fill-opacity="1"></use><g><use xlink:href="#d1Lew4cmmH" opacity="1" fill-opacity="0" stroke="#000000" stroke-width="1" stroke-opacity="0"></use></g></g></g></g></svg>